<svg width="260" height="56" viewBox="0 0 260 56" fill="none" xmlns="http://www.w3.org/2000/svg">
  <rect x="0.5" y="0.5" width="55" height="55" rx="18" fill="url(#paint0_linear)"/>
  <path d="M17 17H39V24H25V30H37V37H25V46H17V17Z" fill="white"/>
  <path d="M44 17H36V46H44V17Z" fill="white" fill-opacity="0.86"/>
  <path d="M72 18.5H102.5V24.5H79.5V31H98V36.9H79.5V45.5H103V51.5H72V18.5Z" fill="#1D2438"/>
  <path d="M109.4 51.5V18.5H116.9L130.1 39.5L143.3 18.5H150.8V51.5H143.8V31.6L132 50H128L116.3 31.6V51.5H109.4Z" fill="#1D2438"/>
  <path d="M158.3 51.5V18.5H166.1L181.7 41V18.5H188.7V51.5H181.2L165.3 28.5V51.5H158.3Z" fill="#1D2438"/>
  <path d="M197.8 51.5V18.5H220.8V24.5H204.9V31.7H219.5V37.6H204.9V45.5H221.2V51.5H197.8Z" fill="#1D2438"/>
  <path d="M229.2 51.5V24.6H219.7V18.5H245.9V24.6H236.3V51.5H229.2Z" fill="#1D2438"/>
  <defs>
    <linearGradient id="paint0_linear" x1="4" y1="4" x2="52" y2="52" gradientUnits="userSpaceOnUse">
      <stop stop-color="#CF6D2E"/>
      <stop offset="1" stop-color="#9F4E1D"/>
    </linearGradient>
  </defs>
</svg>
